# xmcd
#
# Track frame offsets:
# 150
# 24665
# 43212
# 83795
# 103675
# 119150
# 133047
# 153392
# 189180
# 206695
# 218790
# 231195
# 250832
# 275992
# 297802
#
# Disc length: 4115 seconds
#
#
# Revision: 1
# Processed by: cddbd v1.5.2PL0 Copyright (c) Steve Scherf et al.
# Submitted via: FreeRIP 2.942 
#
DISCID=e410110f
DTITLE=Joseph Haydn - Divertimenti Vol. 2, No. 4 - 6
DYEAR=1900
DGENRE=Classical
TTITLE0=Divertimento No. 4, Hob.III-4: 1. Presto
TTITLE1=Divertimento No. 4, Hob.III-4: 2. Menuetto-Trio
TTITLE2=Divertimento No. 4, Hob.III-4: 3. Adagio
TTITLE3=Divertimento No. 4, Hob.III-4: 4. Menuetto-Trio
TTITLE4=Divertimento No. 4, Hob.III-4: 5. Finale. Presto
TTITLE5=Divertimento No. 5, Hob.II-6: 1. Presto
TTITLE6=Divertimento No. 5, Hob.II-6: 2. Menuetto-Trio
TTITLE7=Divertimento No. 5, Hob.II-6: 3. Adagio
TTITLE8=Divertimento No. 5, Hob.II-6: 4. Menuetto-Trio
TTITLE9=Divertimento No. 5, Hob.II-6: 5. Presto
TTITLE10=Divertimento No. 6, Hob.III-6: 1. Presto assai
TTITLE11=Divertimento No. 6, Hob.III-6: 2. Menuetto-Trio
TTITLE12=Divertimento No. 6, Hob.III-6: 3. Adagio
TTITLE13=Divertimento No. 6, Hob.III-6: 4. Menuetto-Trio
TTITLE14=Divertimento No. 6, Hob.III-6: 5. Finale. Presto
EXTD=
EXTT0=
EXTT1=
EXTT2=
EXTT3=
EXTT4=
EXTT5=
EXTT6=
EXTT7=
EXTT8=
EXTT9=
EXTT10=
EXTT11=
EXTT12=
EXTT13=
EXTT14=
PLAYORDER=
